An ordinary LDS family has a teenager named Jimmy and he wonders about life and what is coming. Jimmy's sister Julie has a boyfriend on a mission who she plans to marry when he gets home. Jimmy's twin sister Pam is handicapped and is confined to a wheelchair and wants to make things good for Jimmy. Jimmy doesn't seem to care about his large family and wants to do his own things. When Jimmy hears his mother is going to have another child, Jimmy is filled with anger and leaves. His family wants Jimmy to return and love him, but Jimmy does not want their love.

Video
ID                                       : 1
Format                                   : AVC
Format/Info                              : Advanced Video Codec
Format profile                           : Main@L3.0
Format settings, CABAC                   : Yes
Format settings, ReFrames                : 4 frames
Codec ID                                 : avc1
Codec ID/Info                            : Advanced Video Coding
Duration                                 : 1h 55mn
Bit rate mode                            : Variable
Bit rate                                 : 789 Kbps
Width                                    : 690 pixels
Height                                   : 478 pixels
Display aspect ratio                     : 1.283
Frame rate mode                          : Constant
Frame rate                               : 29.970 fps
Color space                              : YUV
Chroma subsampling                       : 4:2:0
Bit depth                                : 8 bits
Scan type                                : Progressive
Bits/(Pixel*Frame)                       : 0.080
Stream size                              : 650 MiB (80%)
Writing library                          : x264 core 120

Audio
ID                                       : 2
Format                                   : AC-3
Format/Info                              : Audio Coding 3
Mode extension                           : CM (complete main)
Format settings, Endianness              : Big
Codec ID                                 : ac-3
Duration                                 : 1h 55mn
Bit rate mode                            : Constant
Bit rate                                 : 192 Kbps
Channel(s)                               : 2 channels
Channel positions                        : Front: L R
Sampling rate                            : 48.0 KHz
Bit depth                                : 16 bits
Compression mode                         : Lossy
Delay relative to video                  : 67ms
Stream size                              : 158 MiB (20%)
Language                                 : English
Encoded date                             : UTC 2012-12-06 11:42:59
Tagged date                              : UTC 2012-12-06 16:27:48